# xmcd
#
# Track frame offsets:
#	150
#	15261
#	24639
#	38096
#	51951
#	62021
#	73401
#	93438
#	104690
#	118724
#	135375
#
# Disc length: 1809 seconds
#
# Revision: 1
# Processed by: cddbd v1.4PL0 Copyright (c) Steve Scherf et al.
# Submitted via: audiograbber 1.82.02
#
DISCID=95070f0b
DTITLE=Willie Heath Neal - Willie Heath Neal
DYEAR=1900
DGENRE=
TTITLE0=Ain't Doing Me Right
TTITLE1=Sack
TTITLE2=Backwoods, Country, White Trash
TTITLE3=Graduation Day
TTITLE4=Tennessee Woman Blues
TTITLE5=Pain Train
TTITLE6=Tattoo Ballad
TTITLE7=Guitar Town
TTITLE8=Everybody Knows
TTITLE9=Warm Whiskey
TTITLE10=Appreciate It
EXTD=
EXTT0=
EXTT1=
EXTT2=
EXTT3=
EXTT4=
EXTT5=
EXTT6=
EXTT7=
EXTT8=
EXTT9=
EXTT10=
PLAYORDER=
